<?xml version="1.0" encoding="UTF-8" standalone="no"?>
<svg width="397px" height="278px" viewBox="0 0 397 278" version="1.1" xmlns="http://www.w3.org/2000/svg" xmlns:xlink="http://www.w3.org/1999/xlink" xmlns:sketch="http://www.bohemiancoding.com/sketch/ns">
    <!-- Generator: Sketch 3.3.3 (12081) - http://www.bohemiancoding.com/sketch -->
    <title>Logo</title>
    <desc>Created with Sketch.</desc>
    <defs>
        <filter x="-50%" y="-50%" width="200%" height="200%" filterUnits="objectBoundingBox" id="filter-1">
            <feOffset dx="0" dy="2" in="SourceAlpha" result="shadowOffsetOuter1"></feOffset>
            <feGaussianBlur stdDeviation="2" in="shadowOffsetOuter1" result="shadowBlurOuter1"></feGaussianBlur>
            <feColorMatrix values="0 0 0 0 0   0 0 0 0 0   0 0 0 0 0  0 0 0 0.35 0" in="shadowBlurOuter1" type="matrix" result="shadowMatrixOuter1"></feColorMatrix>
            <feMerge>
                <feMergeNode in="shadowMatrixOuter1"></feMergeNode>
                <feMergeNode in="SourceGraphic"></feMergeNode>
            </feMerge>
        </filter>
        <filter x="-50%" y="-50%" width="200%" height="200%" filterUnits="objectBoundingBox" id="filter-2">
            <feOffset dx="0" dy="2" in="SourceAlpha" result="shadowOffsetOuter1"></feOffset>
            <feGaussianBlur stdDeviation="2" in="shadowOffsetOuter1" result="shadowBlurOuter1"></feGaussianBlur>
            <feColorMatrix values="0 0 0 0 0   0 0 0 0 0   0 0 0 0 0  0 0 0 0.35 0" in="shadowBlurOuter1" type="matrix" result="shadowMatrixOuter1"></feColorMatrix>
            <feMerge>
                <feMergeNode in="shadowMatrixOuter1"></feMergeNode>
                <feMergeNode in="SourceGraphic"></feMergeNode>
            </feMerge>
        </filter>
    </defs>
    <g id="Page-1" stroke="none" stroke-width="1" fill="none" fill-rule="evenodd" sketch:type="MSPage">
        <g id="Logo" sketch:type="MSLayerGroup" transform="translate(8.000000, 5.000000)" stroke="#4A4A4A" stroke-width="8" stroke-linecap="square">
            <path d="M132.5,232.615526 C132.5,232.615526 134,87.1155261 150.5,54.615526 C167,22.115526 305,7.61552735 335,23.1155265 C365,38.6155257 364,68.1155264 335,89.1155226 C306,110.115519 163,157.115523 163,157.115523 C163,157.115523 314.5,108.499998 342,113.999998 C369.5,119.499998 395.5,151.999998 371,181.615523 C346.5,211.231047 111,262.115526 111,262.115526" id="Line" filter="url(#filter-1)" sketch:type="MSShapeGroup"></path>
            <path d="M98.5,216.615526 C98.5,216.615526 100,71.1155261 116.5,38.615526 C133,6.11552596 271,-8.38447265 301,7.1155265 C331,22.6155257 330,52.1155264 301,73.1155226 C272,94.1155188 0,177.999998 0,177.999998" id="Line-Copy" opacity="0.705107276" filter="url(#filter-2)" sketch:type="MSShapeGroup"></path>
        </g>
    </g>
</svg>
