<?xml version="1.0" encoding="UTF-8" standalone="no"?>
<svg width="48px" height="38px" viewBox="0 0 48 38" version="1.1" xmlns="http://www.w3.org/2000/svg" xmlns:xlink="http://www.w3.org/1999/xlink">
    <!-- Generator: Sketch 3.6.1 (26313) - http://www.bohemiancoding.com/sketch -->
    <title>Medium</title>
    <desc>Created with Sketch.</desc>
    <defs></defs>
    <g id="Page-1" stroke="none" stroke-width="1" fill="none" fill-rule="evenodd">
        <path d="M48,32.4 L46.1016,32.4 C45.3968,32.4 44.4,31.38328 44.4,30.73236 L44.4,7.14 C44.4,6.48828 45.3968,5.6 46.1016,5.6 L48,5.6 L48,0 L30.8,0 L30.8,5.6 L34.4,5.6 L34.4,30.4 L34.2236,30.4 L25.81688,0 L19.30828,0 L11.01,30.4 L10.8,30.4 L10.8,5.6 L14.4,5.6 L14.4,0 L0,0 L0,5.6 L1.843908,5.6 C2.60328,5.6 3.6,6.48828 3.6,7.14 L3.6,30.73236 C3.6,31.38328 2.60328,32.4 1.843908,32.4 L0,32.4 L0,38 L18.00656,38 L23.91844,16 L24.08108,16 L30.04764,38 L48,38 L48,32.4" id="Medium" fill="#FFFFFF" transform="translate(24.000000, 19.000000) scale(1, -1) translate(-24.000000, -19.000000) "></path>
    </g>
</svg>